<svg width="82px" height="34px" viewBox="0 0 82 34" version="1.1" xmlns="http://www.w3.org/2000/svg" xmlns:xlink="http://www.w3.org/1999/xlink">
    <!-- Generator: Sketch 47.1 (45422) - http://www.bohemiancoding.com/sketch -->
    <desc>Created with Sketch.</desc>
    <defs>
        <path d="M603,28.3671875 L610.287598,28.3427734 C611.386236,28.3427734 612.385168,28.4567046 613.284424,28.6845703 C614.18368,28.912436 614.987301,29.2298157 615.695312,29.6367188 C616.403324,30.0436218 617.017738,30.5237603 617.538574,31.0771484 C618.05941,31.6305366 618.490721,32.2266407 618.83252,32.8654785 C619.174318,33.5043163 619.428629,34.1716274 619.595459,34.8674316 C619.762289,35.5632359 619.845703,36.2569952 619.845703,36.9487305 C619.845703,37.6241896 619.768393,38.3138799 619.61377,39.0178223 C619.459146,39.7217646 619.217043,40.4053515 618.887451,41.0686035 C618.55786,41.7318555 618.136721,42.3544079 617.624023,42.9362793 C617.111326,43.5181507 616.496911,44.0267719 615.780762,44.4621582 C615.064612,44.8975445 614.240646,45.2413724 613.308838,45.4936523 C612.37703,45.7459323 611.32927,45.8720703 610.165527,45.8720703 L603,45.8720703 L603,44.2241211 C603.276694,44.207845 603.526936,44.1793622 603.750732,44.1386719 C603.974529,44.0979816 604.161702,44.0084642 604.312256,43.8701172 C604.46281,43.7317701 604.578776,43.5201837 604.660156,43.2353516 C604.741537,42.9505194 604.782227,42.5558293 604.782227,42.0512695 L604.782227,32.46875 C604.782227,32.2408843 604.784261,32.0170909 604.78833,31.7973633 C604.792399,31.5776356 604.798503,31.3680837 604.806641,31.1687012 C604.814779,30.9693187 604.824951,30.7882495 604.837158,30.6254883 C604.849365,30.4627271 604.863607,30.328451 604.879883,30.2226562 L603,30.2958984 L603,28.3671875 Z M610.23877,30.0151367 C609.929523,30.0069987 609.658937,30.0232745 609.427002,30.0639648 C609.195067,30.1046552 609.003826,30.1982415 608.853271,30.3447266 C608.702717,30.4912117 608.588786,30.7068671 608.511475,30.9916992 C608.434163,31.2765314 608.395508,31.6590145 608.395508,32.1391602 L608.395508,41.7705078 C608.395508,41.9983735 608.393473,42.2221669 608.389404,42.4418945 C608.385335,42.6616222 608.379232,42.8711741 608.371094,43.0705566 C608.362956,43.2699391 608.352783,43.4510083 608.340576,43.6137695 C608.328369,43.7765308 608.314128,43.9108068 608.297852,44.0166016 C608.419922,44.0084635 608.584716,44.0043945 608.792236,44.0043945 C608.999757,44.0043945 609.219481,44.0084635 609.451416,44.0166016 C609.683351,44.0247396 609.911213,44.0308431 610.13501,44.0349121 C610.358806,44.0389811 610.543945,44.0410156 610.69043,44.0410156 C611.601893,44.0410156 612.385169,43.8558775 613.040283,43.4855957 C613.695397,43.1153139 614.234536,42.6229686 614.657715,42.0085449 C615.080894,41.3941213 615.394205,40.692224 615.597656,39.902832 C615.801108,39.1134401 615.902832,38.3037151 615.902832,37.4736328 C615.902832,36.1959572 615.770591,35.0932664 615.506104,34.1655273 C615.241617,33.2377883 614.863202,32.4707875 614.37085,31.864502 C613.878497,31.2582164 613.282393,30.8045262 612.58252,30.503418 C611.882646,30.2023097 611.101404,30.0395509 610.23877,30.0151367 Z M630.307129,32.9692383 C630.600099,32.9692383 630.878824,33.009928 631.143311,33.0913086 C631.407798,33.1726892 631.639729,33.2967928 631.839111,33.463623 C632.038494,33.6304533 632.197184,33.8440742 632.315186,34.1044922 C632.433187,34.3649102 632.492188,34.6782208 632.492188,35.0444336 C632.492188,35.2397471 632.459636,35.4411611 632.394531,35.6486816 C632.329427,35.8562022 632.227703,36.0454093 632.089355,36.2163086 C631.951008,36.3872079 631.769939,36.5275873 631.546143,36.6374512 C631.322346,36.747315 631.051759,36.8022461 630.734375,36.8022461 C630.563476,36.8022461 630.38851,36.7798668 630.209473,36.7351074 C630.030435,36.6903481 629.865642,36.6130377 629.715088,36.5031738 C629.564534,36.39331 629.434327,36.2447926 629.324463,36.0576172 C629.214599,35.8704418 629.147461,35.6303726 629.123047,35.3374023 C628.870767,35.3374023 628.616456,35.4208162 628.360107,35.5876465 C628.103758,35.7544767 627.863689,35.9619942 627.639893,36.2102051 C627.416096,36.458416 627.218751,36.7249335 627.047852,37.0097656 C626.876952,37.2945978 626.754883,37.5509429 626.681641,37.7788086 L626.681641,41.855957 C626.681641,41.978028 626.679606,42.1245109 626.675537,42.2954102 C626.671468,42.4663094 626.665365,42.6494131 626.657227,42.8447266 C626.649089,43.04004 626.638916,43.241454 626.626709,43.4489746 C626.614502,43.6564952 626.60026,43.8538402 626.583984,44.0410156 L628.20752,43.9677734 L628.20752,45.8720703 L621.652344,45.8720703 L621.652344,44.2485352 C622.00228,44.2485352 622.276936,44.1956385 622.476318,44.0898438 C622.675701,43.984049 622.824218,43.8334971 622.921875,43.6381836 C623.019532,43.4428701 623.080566,43.2089044 623.10498,42.9362793 C623.129395,42.6636542 623.141602,42.360516 623.141602,42.0268555 L623.141602,37.8154297 C623.141602,37.5143214 623.147705,37.1786314 623.159912,36.8083496 C623.172119,36.4380678 623.198568,36.0657571 623.239258,35.6914062 L621.481445,35.7646484 L621.481445,33.8725586 C622.059248,33.8725586 622.569903,33.8481448 623.013428,33.7993164 C623.456952,33.750488 623.835366,33.6894535 624.148682,33.6162109 C624.461997,33.5429684 624.714273,33.4636235 624.905518,33.3781738 C625.096762,33.2927242 625.237141,33.2093103 625.32666,33.1279297 L626.55957,33.1279297 L626.669434,35.2763672 L626.706055,35.2763672 C626.868816,35.0566395 627.066161,34.8125013 627.298096,34.5439453 C627.53003,34.2753893 627.798582,34.0251476 628.10376,33.7932129 C628.408937,33.5612781 628.744627,33.3659676 629.11084,33.2072754 C629.477053,33.0485832 629.875812,32.9692383 630.307129,32.9692383 Z M641.000488,42.5273438 C641.073731,42.3157542 641.163248,42.0390642 641.269043,41.6972656 C641.374838,41.355467 641.494872,40.9668804 641.62915,40.5314941 C641.763428,40.0961078 641.909911,39.6241074 642.068604,39.1154785 C642.227296,38.6068497 642.396158,38.0799181 642.575195,37.534668 C642.624024,37.3800448 642.685058,37.1989756 642.758301,36.9914551 C642.831543,36.7839345 642.914957,36.5703136 643.008545,36.3505859 C643.102133,36.1308583 643.201822,35.9192719 643.307617,35.7158203 C643.413412,35.5123688 643.523274,35.341472 643.637207,35.203125 L643.637207,35.1787109 L642.208984,35.2763672 L642.208984,33.3720703 L646.652344,33.3720703 L646.652344,34.9711914 C646.131508,35.1014004 645.702232,35.4208145 645.364502,35.9294434 C645.026772,36.4380722 644.727703,37.070797 644.467285,37.8276367 L641.330078,46.7509766 C640.980141,47.7682343 640.646486,48.6491662 640.329102,49.3937988 C640.011717,50.1384315 639.678062,50.7508114 639.328125,51.230957 C638.978188,51.7111027 638.591636,52.0671375 638.168457,52.2990723 C637.745278,52.531007 637.252932,52.6469727 636.691406,52.6469727 C636.365884,52.6469727 636.06478,52.598145 635.788086,52.5004883 C635.511392,52.4028315 635.271323,52.2644866 635.067871,52.0854492 C634.86442,51.9064119 634.703695,51.6907565 634.585693,51.4384766 C634.467691,51.1861967 634.408691,50.9054377 634.408691,50.5961914 C634.408691,50.3683257 634.449381,50.1506358 634.530762,49.9431152 C634.612142,49.7355947 634.724039,49.552491 634.866455,49.3937988 C635.008871,49.2351066 635.179768,49.1089686 635.37915,49.0153809 C635.578533,48.9217932 635.796223,48.875 636.032227,48.875 C636.203126,48.875 636.365885,48.9095862 636.520508,48.9787598 C636.675131,49.0479333 636.811441,49.1435541 636.929443,49.265625 C637.047445,49.3876959 637.141032,49.5341788 637.210205,49.7050781 C637.279379,49.8759774 637.313965,50.06315 637.313965,50.2666016 C637.313965,50.3723964 637.301758,50.4863275 637.277344,50.6083984 L637.277344,50.6328125 C637.448243,50.6328125 637.627278,50.5168469 637.814453,50.2849121 C638.001629,50.0529774 638.190836,49.7478046 638.38208,49.3693848 C638.573325,48.9909649 638.756428,48.5555851 638.931396,48.0632324 C639.106365,47.5708797 639.267089,47.060224 639.413574,46.53125 L635.446289,38.6088867 C635.210285,38.1450172 635.019044,37.7421892 634.872559,37.4003906 C634.726073,37.058592 634.610108,36.7595228 634.524658,36.5031738 C634.439209,36.2468249 634.378174,36.0169281 634.341553,35.8134766 C634.304931,35.610025 634.274414,35.4147145 634.25,35.2275391 L633.102539,35.2763672 L633.102539,33.3720703 L639.328125,33.3720703 L639.328125,34.9711914 C638.937498,35.0200198 638.664877,35.1339509 638.510254,35.3129883 C638.355631,35.4920256 638.27832,35.7036121 638.27832,35.9477539 C638.27832,36.1023771 638.302734,36.2631014 638.351562,36.4299316 C638.400391,36.5967619 638.461425,36.7615552 638.534668,36.9243164 L640.976074,42.5273438 L641.000488,42.5273438 Z M660.653809,41.855957 C660.653809,41.978028 660.651774,42.1245109 660.647705,42.2954102 C660.643636,42.4663094 660.637533,42.6494131 660.629395,42.8447266 C660.621256,43.04004 660.611084,43.241454 660.598877,43.4489746 C660.58667,43.6564952 660.572428,43.8538402 660.556152,44.0410156 L662.179688,43.9677734 L662.179688,45.8720703 L655.624512,45.8720703 L655.624512,44.2485352 C655.974448,44.2485352 656.249104,44.1956385 656.448486,44.0898438 C656.647869,43.984049 656.796386,43.8334971 656.894043,43.6381836 C656.9917,43.4428701 657.052734,43.2089044 657.077148,42.9362793 C657.101563,42.6636542 657.11377,42.360516 657.11377,42.0268555 L657.101562,38.4624023 C657.093424,37.363764 656.926597,36.558108 656.601074,36.0454102 C656.275552,35.5327123 655.766931,35.2763672 655.075195,35.2763672 C654.643878,35.2763672 654.226809,35.3658845 653.823975,35.5449219 C653.421141,35.7239592 653.077313,35.9396146 652.79248,36.1918945 L652.79248,41.855957 C652.79248,41.978028 652.790446,42.1245109 652.786377,42.2954102 C652.782308,42.4663094 652.776204,42.6494131 652.768066,42.8447266 C652.759928,43.04004 652.749756,43.241454 652.737549,43.4489746 C652.725342,43.6564952 652.7111,43.8538402 652.694824,44.0410156 L654.318359,43.9677734 L654.318359,45.8720703 L647.763184,45.8720703 L647.763184,44.2485352 C648.11312,44.2485352 648.387776,44.1956385 648.587158,44.0898438 C648.786541,43.984049 648.935058,43.8334971 649.032715,43.6381836 C649.130372,43.4428701 649.191406,43.2089044 649.21582,42.9362793 C649.240234,42.6636542 649.252441,42.360516 649.252441,42.0268555 L649.252441,37.8154297 C649.252441,37.5143214 649.258545,37.1786314 649.270752,36.8083496 C649.282959,36.4380678 649.309407,36.0657571 649.350098,35.6914062 L647.592285,35.7646484 L647.592285,33.8725586 C648.170088,33.8725586 648.680743,33.8481448 649.124268,33.7993164 C649.567792,33.750488 649.946206,33.6894535 650.259521,33.6162109 C650.572837,33.5429684 650.825113,33.4636235 651.016357,33.3781738 C651.207602,33.2927242 651.347981,33.2093103 651.4375,33.1279297 L652.67041,33.1279297 L652.780273,34.3608398 L652.816895,34.3608398 C653.061036,34.1736644 653.339761,33.9946298 653.653076,33.8237305 C653.966392,33.6528312 654.28784,33.5043138 654.617432,33.3781738 C654.947023,33.2520339 655.268472,33.1523441 655.581787,33.0791016 C655.895102,33.005859 656.177896,32.9692383 656.430176,32.9692383 C657.195154,32.9692383 657.844154,33.077066 658.377197,33.2927246 C658.91024,33.5083832 659.34562,33.8400043 659.68335,34.2875977 C660.021079,34.735191 660.267252,35.3089158 660.421875,36.0087891 C660.576498,36.7086624 660.653809,37.5387322 660.653809,38.4990234 L660.653809,41.855957 Z M668.319824,41.855957 C668.319824,41.978028 668.31779,42.1245109 668.313721,42.2954102 C668.309652,42.4663094 668.303548,42.6494131 668.29541,42.8447266 C668.287272,43.04004 668.2771,43.241454 668.264893,43.4489746 C668.252685,43.6564952 668.238444,43.8538402 668.222168,44.0410156 L669.845703,43.9677734 L669.845703,45.8720703 L663.290527,45.8720703 L663.290527,44.2485352 C663.640464,44.2485352 663.915119,44.1956385 664.114502,44.0898438 C664.313884,43.984049 664.462402,43.8334971 664.560059,43.6381836 C664.657715,43.4428701 664.71875,43.2089044 664.743164,42.9362793 C664.767578,42.6636542 664.779785,42.360516 664.779785,42.0268555 L664.779785,31.7485352 C664.779785,31.4474269 664.785889,31.1015645 664.798096,30.7109375 C664.810303,30.3203105 664.836751,29.9378274 664.877441,29.5634766 L663.119629,29.6367188 L663.119629,27.7446289 C663.697431,27.7446289 664.208087,27.7202151 664.651611,27.6713867 C665.095136,27.6225583 665.47355,27.5615238 665.786865,27.4882812 C666.100181,27.4150387 666.352457,27.3356938 666.543701,27.2502441 C666.734946,27.1647945 666.875325,27.0813806 666.964844,27 L668.319824,27 L668.319824,38.4013672 L669.540527,38.4013672 L671.322754,36.3261719 C671.534344,36.08203 671.711344,35.880616 671.85376,35.7219238 C671.996176,35.5632316 672.144693,35.4147142 672.299316,35.2763672 L672.299316,35.2519531 L670.96875,35.2763672 L670.96875,33.3720703 L676.608398,33.3720703 L676.608398,34.9711914 C676.168943,35.0200198 675.76815,35.1136061 675.406006,35.2519531 C675.043862,35.3903002 674.718345,35.5510245 674.429443,35.7341309 C674.140542,35.9172372 673.882163,36.1145823 673.654297,36.3261719 C673.426431,36.5377615 673.222983,36.74121 673.043945,36.9365234 L671.444824,38.71875 L671.444824,38.7431641 C671.575033,38.8082686 671.699137,38.8835445 671.817139,38.9689941 C671.935141,39.0544438 672.05721,39.156168 672.18335,39.2741699 C672.30949,39.3921718 672.4458,39.5345858 672.592285,39.701416 C672.73877,39.8682463 672.901529,40.0696603 673.080566,40.3056641 L674.75293,42.4907227 C674.850586,42.6209316 674.976724,42.7857249 675.131348,42.9851074 C675.285971,43.1844899 675.460937,43.377766 675.65625,43.5649414 C675.851563,43.7521168 676.067219,43.9128411 676.303223,44.0471191 C676.539226,44.1813972 676.787434,44.2485352 677.047852,44.2485352 L677.047852,45.8720703 L674.179199,45.8720703 C673.910643,45.8720703 673.664471,45.8232427 673.440674,45.7255859 C673.216877,45.6279292 672.997153,45.4875497 672.781494,45.3044434 C672.565836,45.121337 672.346111,44.8934747 672.122314,44.6208496 C671.898518,44.3482245 671.656414,44.0369484 671.395996,43.6870117 C671.176268,43.3940415 670.944337,43.0766619 670.700195,42.7348633 C670.456053,42.3930647 670.222088,42.0594092 669.998291,41.7338867 C669.774494,41.4083643 669.564942,41.105226 669.369629,40.8244629 C669.174315,40.5436998 669.015626,40.3178719 668.893555,40.1469727 L668.319824,40.1713867 L668.319824,41.855957 Z" id="path-1"></path>
        <filter x="-10.1%" y="-21.4%" width="120.3%" height="158.5%" filterUnits="objectBoundingBox" id="filter-2">
            <feMorphology radius="0.5" operator="dilate" in="SourceAlpha" result="shadowSpreadOuter1"></feMorphology>
            <feOffset dx="0" dy="2" in="shadowSpreadOuter1" result="shadowOffsetOuter1"></feOffset>
            <feGaussianBlur stdDeviation="2" in="shadowOffsetOuter1" result="shadowBlurOuter1"></feGaussianBlur>
            <feComposite in="shadowBlurOuter1" in2="SourceAlpha" operator="out" result="shadowBlurOuter1"></feComposite>
            <feColorMatrix values="0 0 0 0 0   0 0 0 0 0   0 0 0 0 0  0 0 0 0.5 0" type="matrix" in="shadowBlurOuter1"></feColorMatrix>
        </filter>
        <filter x="-8.8%" y="-17.5%" width="117.6%" height="150.7%" filterUnits="objectBoundingBox" id="filter-3">
            <feGaussianBlur stdDeviation="1.5" in="SourceAlpha" result="shadowBlurInner1"></feGaussianBlur>
            <feOffset dx="0" dy="1" in="shadowBlurInner1" result="shadowOffsetInner1"></feOffset>
            <feComposite in="shadowOffsetInner1" in2="SourceAlpha" operator="arithmetic" k2="-1" k3="1" result="shadowInnerInner1"></feComposite>
            <feColorMatrix values="0 0 0 0 0   0 0 0 0 0   0 0 0 0 0  0 0 0 0.5 0" type="matrix" in="shadowInnerInner1"></feColorMatrix>
        </filter>
        <filter x="-8.8%" y="-17.5%" width="117.6%" height="150.7%" filterUnits="objectBoundingBox" id="filter-4">
            <feGaussianBlur stdDeviation="1.5" in="SourceAlpha" result="shadowBlurInner1"></feGaussianBlur>
            <feOffset dx="0" dy="1" in="shadowBlurInner1" result="shadowOffsetInner1"></feOffset>
            <feComposite in="shadowOffsetInner1" in2="SourceAlpha" operator="arithmetic" k2="-1" k3="1" result="shadowInnerInner1"></feComposite>
            <feColorMatrix values="0 0 0 0 0   0 0 0 0 0   0 0 0 0 0  0 0 0 0.5 0" type="matrix" in="shadowInnerInner1"></feColorMatrix>
        </filter>
    </defs>
    <g id="Page-1" stroke="none" stroke-width="1" fill="none" fill-rule="evenodd">
        <g id="Desktop_List" transform="translate(-599.000000, -21.000000)">
            <g id="Drynk" transform="translate(640.023926, 39.823486) rotate(-180.000000) translate(-640.023926, -39.823486) ">
                <use fill="black" fill-opacity="1" filter="url(#filter-2)" xlink:href="#path-1"></use>
                <use fill="#423C44" fill-rule="evenodd" xlink:href="#path-1"></use>
                <use fill="black" fill-opacity="1" filter="url(#filter-3)" xlink:href="#path-1"></use>
                <use fill="black" fill-opacity="1" filter="url(#filter-4)" xlink:href="#path-1"></use>
            </g>
        </g>
    </g>
</svg>