
<svg width="75px" height="26px" viewBox="0 0 75 26" version="1.1" xmlns="http://www.w3.org/2000/svg" xmlns:xlink="http://www.w3.org/1999/xlink">
    <!-- Generator: Sketch 47.1 (45422) - http://www.bohemiancoding.com/sketch -->
    <desc>Created with Sketch.</desc>
    <defs></defs>
    <g id="Page-1" stroke="none" stroke-width="1" fill="none" fill-rule="evenodd">
        <g id="Mobile_ProductPage" transform="translate(-150.000000, -16.000000)" fill="#DDE4EF">
            <path d="M150,17.3671875 L157.287598,17.3427734 C158.386236,17.3427734 159.385168,17.4567046 160.284424,17.6845703 C161.18368,17.912436 161.987301,18.2298157 162.695312,18.6367188 C163.403324,19.0436218 164.017738,19.5237603 164.538574,20.0771484 C165.05941,20.6305366 165.490721,21.2266407 165.83252,21.8654785 C166.174318,22.5043163 166.428629,23.1716274 166.595459,23.8674316 C166.762289,24.5632359 166.845703,25.2569952 166.845703,25.9487305 C166.845703,26.6241896 166.768393,27.3138799 166.61377,28.0178223 C166.459146,28.7217646 166.217043,29.4053515 165.887451,30.0686035 C165.55786,30.7318555 165.136721,31.3544079 164.624023,31.9362793 C164.111326,32.5181507 163.496911,33.0267719 162.780762,33.4621582 C162.064612,33.8975445 161.240646,34.2413724 160.308838,34.4936523 C159.37703,34.7459323 158.32927,34.8720703 157.165527,34.8720703 L150,34.8720703 L150,33.2241211 C150.276694,33.207845 150.526936,33.1793622 150.750732,33.1386719 C150.974529,33.0979816 151.161702,33.0084642 151.312256,32.8701172 C151.46281,32.7317701 151.578776,32.5201837 151.660156,32.2353516 C151.741537,31.9505194 151.782227,31.5558293 151.782227,31.0512695 L151.782227,21.46875 C151.782227,21.2408843 151.784261,21.0170909 151.78833,20.7973633 C151.792399,20.5776356 151.798503,20.3680837 151.806641,20.1687012 C151.814779,19.9693187 151.824951,19.7882495 151.837158,19.6254883 C151.849365,19.4627271 151.863607,19.328451 151.879883,19.2226562 L150,19.2958984 L150,17.3671875 Z M157.23877,19.0151367 C156.929523,19.0069987 156.658937,19.0232745 156.427002,19.0639648 C156.195067,19.1046552 156.003826,19.1982415 155.853271,19.3447266 C155.702717,19.4912117 155.588786,19.7068671 155.511475,19.9916992 C155.434163,20.2765314 155.395508,20.6590145 155.395508,21.1391602 L155.395508,30.7705078 C155.395508,30.9983735 155.393473,31.2221669 155.389404,31.4418945 C155.385335,31.6616222 155.379232,31.8711741 155.371094,32.0705566 C155.362956,32.2699391 155.352783,32.4510083 155.340576,32.6137695 C155.328369,32.7765308 155.314128,32.9108068 155.297852,33.0166016 C155.419922,33.0084635 155.584716,33.0043945 155.792236,33.0043945 C155.999757,33.0043945 156.219481,33.0084635 156.451416,33.0166016 C156.683351,33.0247396 156.911213,33.0308431 157.13501,33.0349121 C157.358806,33.0389811 157.543945,33.0410156 157.69043,33.0410156 C158.601893,33.0410156 159.385169,32.8558775 160.040283,32.4855957 C160.695397,32.1153139 161.234536,31.6229686 161.657715,31.0085449 C162.080894,30.3941213 162.394205,29.692224 162.597656,28.902832 C162.801108,28.1134401 162.902832,27.3037151 162.902832,26.4736328 C162.902832,25.1959572 162.770591,24.0932664 162.506104,23.1655273 C162.241617,22.2377883 161.863202,21.4707875 161.37085,20.864502 C160.878497,20.2582164 160.282393,19.8045262 159.58252,19.503418 C158.882646,19.2023097 158.101404,19.0395509 157.23877,19.0151367 Z M177.307129,21.9692383 C177.600099,21.9692383 177.878824,22.009928 178.143311,22.0913086 C178.407798,22.1726892 178.639729,22.2967928 178.839111,22.463623 C179.038494,22.6304533 179.197184,22.8440742 179.315186,23.1044922 C179.433187,23.3649102 179.492188,23.6782208 179.492188,24.0444336 C179.492188,24.2397471 179.459636,24.4411611 179.394531,24.6486816 C179.329427,24.8562022 179.227703,25.0454093 179.089355,25.2163086 C178.951008,25.3872079 178.769939,25.5275873 178.546143,25.6374512 C178.322346,25.747315 178.051759,25.8022461 177.734375,25.8022461 C177.563476,25.8022461 177.38851,25.7798668 177.209473,25.7351074 C177.030435,25.6903481 176.865642,25.6130377 176.715088,25.5031738 C176.564534,25.39331 176.434327,25.2447926 176.324463,25.0576172 C176.214599,24.8704418 176.147461,24.6303726 176.123047,24.3374023 C175.870767,24.3374023 175.616456,24.4208162 175.360107,24.5876465 C175.103758,24.7544767 174.863689,24.9619942 174.639893,25.2102051 C174.416096,25.458416 174.218751,25.7249335 174.047852,26.0097656 C173.876952,26.2945978 173.754883,26.5509429 173.681641,26.7788086 L173.681641,30.855957 C173.681641,30.978028 173.679606,31.1245109 173.675537,31.2954102 C173.671468,31.4663094 173.665365,31.6494131 173.657227,31.8447266 C173.649089,32.04004 173.638916,32.241454 173.626709,32.4489746 C173.614502,32.6564952 173.60026,32.8538402 173.583984,33.0410156 L175.20752,32.9677734 L175.20752,34.8720703 L168.652344,34.8720703 L168.652344,33.2485352 C169.00228,33.2485352 169.276936,33.1956385 169.476318,33.0898438 C169.675701,32.984049 169.824218,32.8334971 169.921875,32.6381836 C170.019532,32.4428701 170.080566,32.2089044 170.10498,31.9362793 C170.129395,31.6636542 170.141602,31.360516 170.141602,31.0268555 L170.141602,26.8154297 C170.141602,26.5143214 170.147705,26.1786314 170.159912,25.8083496 C170.172119,25.4380678 170.198568,25.0657571 170.239258,24.6914062 L168.481445,24.7646484 L168.481445,22.8725586 C169.059248,22.8725586 169.569903,22.8481448 170.013428,22.7993164 C170.456952,22.750488 170.835366,22.6894535 171.148682,22.6162109 C171.461997,22.5429684 171.714273,22.4636235 171.905518,22.3781738 C172.096762,22.2927242 172.237141,22.2093103 172.32666,22.1279297 L173.55957,22.1279297 L173.669434,24.2763672 L173.706055,24.2763672 C173.868816,24.0566395 174.066161,23.8125013 174.298096,23.5439453 C174.53003,23.2753893 174.798582,23.0251476 175.10376,22.7932129 C175.408937,22.5612781 175.744627,22.3659676 176.11084,22.2072754 C176.477053,22.0485832 176.875812,21.9692383 177.307129,21.9692383 Z M188.000488,31.5273438 C188.073731,31.3157542 188.163248,31.0390642 188.269043,30.6972656 C188.374838,30.355467 188.494872,29.9668804 188.62915,29.5314941 C188.763428,29.0961078 188.909911,28.6241074 189.068604,28.1154785 C189.227296,27.6068497 189.396158,27.0799181 189.575195,26.534668 C189.624024,26.3800448 189.685058,26.1989756 189.758301,25.9914551 C189.831543,25.7839345 189.914957,25.5703136 190.008545,25.3505859 C190.102133,25.1308583 190.201822,24.9192719 190.307617,24.7158203 C190.413412,24.5123688 190.523274,24.341472 190.637207,24.203125 L190.637207,24.1787109 L189.208984,24.2763672 L189.208984,22.3720703 L193.652344,22.3720703 L193.652344,23.9711914 C193.131508,24.1014004 192.702232,24.4208145 192.364502,24.9294434 C192.026772,25.4380722 191.727703,26.070797 191.467285,26.8276367 L188.330078,35.7509766 C187.980141,36.7682343 187.646486,37.6491662 187.329102,38.3937988 C187.011717,39.1384315 186.678062,39.7508114 186.328125,40.230957 C185.978188,40.7111027 185.591636,41.0671375 185.168457,41.2990723 C184.745278,41.531007 184.252932,41.6469727 183.691406,41.6469727 C183.365884,41.6469727 183.06478,41.598145 182.788086,41.5004883 C182.511392,41.4028315 182.271323,41.2644866 182.067871,41.0854492 C181.86442,40.9064119 181.703695,40.6907565 181.585693,40.4384766 C181.467691,40.1861967 181.408691,39.9054377 181.408691,39.5961914 C181.408691,39.3683257 181.449381,39.1506358 181.530762,38.9431152 C181.612142,38.7355947 181.724039,38.552491 181.866455,38.3937988 C182.008871,38.2351066 182.179768,38.1089686 182.37915,38.0153809 C182.578533,37.9217932 182.796223,37.875 183.032227,37.875 C183.203126,37.875 183.365885,37.9095862 183.520508,37.9787598 C183.675131,38.0479333 183.811441,38.1435541 183.929443,38.265625 C184.047445,38.3876959 184.141032,38.5341788 184.210205,38.7050781 C184.279379,38.8759774 184.313965,39.06315 184.313965,39.2666016 C184.313965,39.3723964 184.301758,39.4863275 184.277344,39.6083984 L184.277344,39.6328125 C184.448243,39.6328125 184.627278,39.5168469 184.814453,39.2849121 C185.001629,39.0529774 185.190836,38.7478046 185.38208,38.3693848 C185.573325,37.9909649 185.756428,37.5555851 185.931396,37.0632324 C186.106365,36.5708797 186.267089,36.060224 186.413574,35.53125 L182.446289,27.6088867 C182.210285,27.1450172 182.019044,26.7421892 181.872559,26.4003906 C181.726073,26.058592 181.610108,25.7595228 181.524658,25.5031738 C181.439209,25.2468249 181.378174,25.0169281 181.341553,24.8134766 C181.304931,24.610025 181.274414,24.4147145 181.25,24.2275391 L180.102539,24.2763672 L180.102539,22.3720703 L186.328125,22.3720703 L186.328125,23.9711914 C185.937498,24.0200198 185.664877,24.1339509 185.510254,24.3129883 C185.355631,24.4920256 185.27832,24.7036121 185.27832,24.9477539 C185.27832,25.1023771 185.302734,25.2631014 185.351562,25.4299316 C185.400391,25.5967619 185.461425,25.7615552 185.534668,25.9243164 L187.976074,31.5273438 L188.000488,31.5273438 Z M207.653809,30.855957 C207.653809,30.978028 207.651774,31.1245109 207.647705,31.2954102 C207.643636,31.4663094 207.637533,31.6494131 207.629395,31.8447266 C207.621256,32.04004 207.611084,32.241454 207.598877,32.4489746 C207.58667,32.6564952 207.572428,32.8538402 207.556152,33.0410156 L209.179688,32.9677734 L209.179688,34.8720703 L202.624512,34.8720703 L202.624512,33.2485352 C202.974448,33.2485352 203.249104,33.1956385 203.448486,33.0898438 C203.647869,32.984049 203.796386,32.8334971 203.894043,32.6381836 C203.9917,32.4428701 204.052734,32.2089044 204.077148,31.9362793 C204.101563,31.6636542 204.11377,31.360516 204.11377,31.0268555 L204.101562,27.4624023 C204.093424,26.363764 203.926597,25.558108 203.601074,25.0454102 C203.275552,24.5327123 202.766931,24.2763672 202.075195,24.2763672 C201.643878,24.2763672 201.226809,24.3658845 200.823975,24.5449219 C200.421141,24.7239592 200.077313,24.9396146 199.79248,25.1918945 L199.79248,30.855957 C199.79248,30.978028 199.790446,31.1245109 199.786377,31.2954102 C199.782308,31.4663094 199.776204,31.6494131 199.768066,31.8447266 C199.759928,32.04004 199.749756,32.241454 199.737549,32.4489746 C199.725342,32.6564952 199.7111,32.8538402 199.694824,33.0410156 L201.318359,32.9677734 L201.318359,34.8720703 L194.763184,34.8720703 L194.763184,33.2485352 C195.11312,33.2485352 195.387776,33.1956385 195.587158,33.0898438 C195.786541,32.984049 195.935058,32.8334971 196.032715,32.6381836 C196.130372,32.4428701 196.191406,32.2089044 196.21582,31.9362793 C196.240234,31.6636542 196.252441,31.360516 196.252441,31.0268555 L196.252441,26.8154297 C196.252441,26.5143214 196.258545,26.1786314 196.270752,25.8083496 C196.282959,25.4380678 196.309407,25.0657571 196.350098,24.6914062 L194.592285,24.7646484 L194.592285,22.8725586 C195.170088,22.8725586 195.680743,22.8481448 196.124268,22.7993164 C196.567792,22.750488 196.946206,22.6894535 197.259521,22.6162109 C197.572837,22.5429684 197.825113,22.4636235 198.016357,22.3781738 C198.207602,22.2927242 198.347981,22.2093103 198.4375,22.1279297 L199.67041,22.1279297 L199.780273,23.3608398 L199.816895,23.3608398 C200.061036,23.1736644 200.339761,22.9946298 200.653076,22.8237305 C200.966392,22.6528312 201.28784,22.5043138 201.617432,22.3781738 C201.947023,22.2520339 202.268472,22.1523441 202.581787,22.0791016 C202.895102,22.005859 203.177896,21.9692383 203.430176,21.9692383 C204.195154,21.9692383 204.844154,22.077066 205.377197,22.2927246 C205.91024,22.5083832 206.34562,22.8400043 206.68335,23.2875977 C207.021079,23.735191 207.267252,24.3089158 207.421875,25.0087891 C207.576498,25.7086624 207.653809,26.5387322 207.653809,27.4990234 L207.653809,30.855957 Z M215.319824,30.855957 C215.319824,30.978028 215.31779,31.1245109 215.313721,31.2954102 C215.309652,31.4663094 215.303548,31.6494131 215.29541,31.8447266 C215.287272,32.04004 215.2771,32.241454 215.264893,32.4489746 C215.252685,32.6564952 215.238444,32.8538402 215.222168,33.0410156 L216.845703,32.9677734 L216.845703,34.8720703 L210.290527,34.8720703 L210.290527,33.2485352 C210.640464,33.2485352 210.915119,33.1956385 211.114502,33.0898438 C211.313884,32.984049 211.462402,32.8334971 211.560059,32.6381836 C211.657715,32.4428701 211.71875,32.2089044 211.743164,31.9362793 C211.767578,31.6636542 211.779785,31.360516 211.779785,31.0268555 L211.779785,20.7485352 C211.779785,20.4474269 211.785889,20.1015645 211.798096,19.7109375 C211.810303,19.3203105 211.836751,18.9378274 211.877441,18.5634766 L210.119629,18.6367188 L210.119629,16.7446289 C210.697431,16.7446289 211.208087,16.7202151 211.651611,16.6713867 C212.095136,16.6225583 212.47355,16.5615238 212.786865,16.4882812 C213.100181,16.4150387 213.352457,16.3356938 213.543701,16.2502441 C213.734946,16.1647945 213.875325,16.0813806 213.964844,16 L215.319824,16 L215.319824,27.4013672 L216.540527,27.4013672 L218.322754,25.3261719 C218.534344,25.08203 218.711344,24.880616 218.85376,24.7219238 C218.996176,24.5632316 219.144693,24.4147142 219.299316,24.2763672 L219.299316,24.2519531 L217.96875,24.2763672 L217.96875,22.3720703 L223.608398,22.3720703 L223.608398,23.9711914 C223.168943,24.0200198 222.76815,24.1136061 222.406006,24.2519531 C222.043862,24.3903002 221.718345,24.5510245 221.429443,24.7341309 C221.140542,24.9172372 220.882163,25.1145823 220.654297,25.3261719 C220.426431,25.5377615 220.222983,25.74121 220.043945,25.9365234 L218.444824,27.71875 L218.444824,27.7431641 C218.575033,27.8082686 218.699137,27.8835445 218.817139,27.9689941 C218.935141,28.0544438 219.05721,28.156168 219.18335,28.2741699 C219.30949,28.3921718 219.4458,28.5345858 219.592285,28.701416 C219.73877,28.8682463 219.901529,29.0696603 220.080566,29.3056641 L221.75293,31.4907227 C221.850586,31.6209316 221.976724,31.7857249 222.131348,31.9851074 C222.285971,32.1844899 222.460937,32.377766 222.65625,32.5649414 C222.851563,32.7521168 223.067219,32.9128411 223.303223,33.0471191 C223.539226,33.1813972 223.787434,33.2485352 224.047852,33.2485352 L224.047852,34.8720703 L221.179199,34.8720703 C220.910643,34.8720703 220.664471,34.8232427 220.440674,34.7255859 C220.216877,34.6279292 219.997153,34.4875497 219.781494,34.3044434 C219.565836,34.121337 219.346111,33.8934747 219.122314,33.6208496 C218.898518,33.3482245 218.656414,33.0369484 218.395996,32.6870117 C218.176268,32.3940415 217.944337,32.0766619 217.700195,31.7348633 C217.456053,31.3930647 217.222088,31.0594092 216.998291,30.7338867 C216.774494,30.4083643 216.564942,30.105226 216.369629,29.8244629 C216.174315,29.5436998 216.015626,29.3178719 215.893555,29.1469727 L215.319824,29.1713867 L215.319824,30.855957 Z" id="Drynk" transform="translate(187.023926, 28.823486) rotate(-180.000000) translate(-187.023926, -28.823486) "></path>
        </g>
    </g>
</svg>