<svg width="15px" height="5px" viewBox="0 0 15 5" version="1.1" xmlns="http://www.w3.org/2000/svg" xmlns:xlink="http://www.w3.org/1999/xlink">
    <!-- Generator: Sketch 47.1 (45422) - http://www.bohemiancoding.com/sketch -->
    <desc>Created with Sketch.</desc>
    <defs></defs>
    <g id="Page-1" stroke="none" stroke-width="1" fill="none" fill-rule="evenodd">
        <g id="Desktop_ProductPage" transform="translate(-633.000000, -468.000000)" fill="#F3F1F3">
            <g id="Group-13" transform="translate(325.000000, 150.000000)">
                <g id="Group-12" transform="translate(50.000000, 58.000000)">
                    <path d="M261.922897,262.16382 C261.487017,262.16382 261.092656,262.205332 260.739801,262.288356 C260.386946,262.371381 260.054852,262.482944 259.74351,262.623048 C259.432167,262.763152 259.136396,262.926604 258.856188,263.11341 C258.575979,263.300216 258.290586,263.497396 258,263.704958 L258,261.696808 C258.332099,261.426978 258.65122,261.185691 258.957374,260.972941 C259.263527,260.76019 259.574865,260.581171 259.891397,260.435877 C260.207928,260.290584 260.540022,260.181616 260.887688,260.108969 C261.235354,260.036323 261.621932,260 262.047433,260 C262.618228,260 263.116368,260.059673 263.54187,260.179021 C263.967371,260.298369 264.346166,260.446255 264.678265,260.622682 C265.010363,260.799109 265.313918,260.993696 265.588937,261.206446 C265.863956,261.419197 266.14416,261.613783 266.429558,261.790211 C266.714955,261.966638 267.021104,262.114524 267.348014,262.233872 C267.674923,262.35322 268.056312,262.412893 268.492192,262.412893 C269.197902,262.412893 269.859495,262.275385 270.476991,262.000366 C271.094487,261.725347 271.657489,261.354336 272.166016,260.887322 L272.166016,262.895471 C271.730136,263.393619 271.198267,263.795764 270.570393,264.101918 C269.942519,264.408071 269.20828,264.561146 268.367655,264.561146 C267.838373,264.561146 267.368772,264.501473 266.958837,264.382125 C266.548903,264.262777 266.177892,264.114891 265.845793,263.938464 C265.513695,263.762036 265.202357,263.570045 264.91177,263.362483 C264.621184,263.154921 264.325413,262.962929 264.024448,262.786502 C263.723484,262.610075 263.404363,262.462189 263.067075,262.342841 C262.729787,262.223493 262.348398,262.16382 261.922897,262.16382 Z" id="~"></path>
                </g>
            </g>
        </g>
    </g>
</svg>